
        <svg id="e29up5T4wEr1" xmlns="http://www.w3.org/2000/svg" xmlns:xlink="http://www.w3.org/1999/xlink" width="200" height="200" viewBox="0 0 116 127" shape-rendering="geometricPrecision" text-rendering="geometricPrecision"><g id="e29up5T4wEr2"><path d="M53.5,13.3094c2.4752-1.4291,5.5248-1.4291,8,0l12.3516,7.1312c2.4752,1.4291,4,4.0701,4,6.9282v14.2624c0,2.8581-1.5248,5.4991-4,6.9282L61.5,55.6906c-2.4752,1.4291-5.5248,1.4291-8,0L41.1484,48.5594c-2.4752-1.4291-4-4.0701-4-6.9282v-14.2624c0-2.8581,1.5248-5.4991,4-6.9282L53.5,13.3094Z" fill="#05b2dc" /><path d="M53.5,73.3094c2.4752-1.4291,5.5248-1.4291,8,0l12.3516,7.1312c2.4752,1.4291,4,4.0701,4,6.9282v14.2622c0,2.858-1.5248,5.499-4,6.928L61.5,115.691c-2.4752,1.429-5.5248,1.429-8,0l-12.3516-7.132c-2.4752-1.429-4-4.07-4-6.928v-14.2622c0-2.8581,1.5248-5.4991,4-6.9282L53.5,73.3094Z" fill="#f15bb5" /></g>

        </svg>

